<?xml version="1.0" encoding="UTF-8"?>
<svg version="1.1" xmlns="http://www.w3.org/2000/svg" width="512" height="512">
<path d="M0 0 C0.97645334 -0.00155999 1.95290667 -0.00311998 2.95894951 -0.00472724 C6.21035515 -0.00869572 9.46171357 -0.00556368 12.71311951 -0.00241089 C15.05298896 -0.00376683 17.39285821 -0.00554785 19.73272705 -0.00772095 C26.07604664 -0.01227404 32.41934993 -0.01051397 38.7626698 -0.00734186 C44.73988766 -0.00506262 50.71710404 -0.006805 56.69432186 -0.00826906 C69.2628875 -0.01111757 81.83144584 -0.0078475 94.40001028 -0.00246869 C105.15412327 0.0019915 115.90822546 0.00122868 126.66233826 -0.00338745 C139.17714568 -0.00875691 151.69194669 -0.01083531 164.2067551 -0.00777519 C170.82131625 -0.00620138 177.4358714 -0.00599231 184.05043221 -0.00931168 C190.27783504 -0.01221839 196.50521766 -0.0101636 202.73261833 -0.00441742 C205.00767356 -0.00310436 207.28273051 -0.00345896 209.55778503 -0.00568008 C239.58455745 -0.03227269 266.65019866 1.81215624 289.91404724 23.12698364 C290.6681488 23.78956177 291.42225037 24.45213989 292.19920349 25.13479614 C310.01471703 41.69741765 318.33557681 66.43808562 319.46746826 90.22135925 C319.53061894 91.52861217 319.53061894 91.52861217 319.59504539 92.86227423 C320.03749107 102.77983158 320.06224096 112.69134811 320.05931091 122.61697388 C320.06231272 124.68434712 320.06571755 126.75171981 320.06948853 128.8190918 C320.07822554 134.37079635 320.08066214 139.92248543 320.08130431 145.4741962 C320.08202033 148.95666138 320.08416488 152.43912276 320.08680153 155.92158699 C320.09601851 168.10960256 320.10014072 180.29760728 320.09934998 192.48562622 C320.0987491 203.78617831 320.10931238 215.08668269 320.12509364 226.38722271 C320.13822734 236.14498822 320.14353149 245.90273824 320.14289457 255.66051251 C320.14264144 261.46410088 320.1453898 267.26764668 320.15607262 273.07122612 C320.16585337 278.53220468 320.16576548 283.99310079 320.15855598 289.45408249 C320.15752265 291.44001322 320.15979699 293.42594938 320.16591644 295.41187096 C320.26288332 329.10262037 316.13790092 358.78425082 292.28904724 384.25198364 C258.61937372 416.57279505 210.20062545 411.2880092 167.12259173 411.26130915 C161.67572148 411.25874377 156.22885276 411.26113451 150.78198242 411.26269531 C141.64313958 411.26450482 132.50430486 411.26214274 123.36546326 411.25735474 C112.85842978 411.25191285 102.35141571 411.2536792 91.8443827 411.25918114 C82.7582983 411.26374526 73.67221968 411.26434683 64.58613449 411.26174247 C59.18778514 411.26019795 53.78944486 411.2599351 48.39109612 411.26327896 C43.31257358 411.2662061 38.23407565 411.26409483 33.15555573 411.2583847 C31.31194919 411.25708278 29.46834051 411.25740636 27.62473488 411.25964737 C17.80558259 411.27046613 8.00536231 411.12284854 -1.80627441 410.72045898 C-3.15063736 410.67021063 -3.15063736 410.67021063 -4.52215916 410.61894715 C-29.99495762 409.45318117 -53.58829406 397.41999046 -71.08595276 379.12698364 C-80.18541518 368.66260186 -86.27822819 357.13173829 -89.89845276 343.81448364 C-90.09342346 343.1054187 -90.28839417 342.39635376 -90.48927307 341.665802 C-94.26232816 326.57524527 -94.37542416 311.13669677 -94.32887268 295.68630981 C-94.32994836 293.58820029 -94.33189126 291.49009105 -94.33462524 289.39198303 C-94.33943207 283.74303674 -94.33186931 278.09417066 -94.3216722 272.44523406 C-94.31281651 266.49957751 -94.31465063 260.55392292 -94.31503296 254.60826111 C-94.31409928 244.62482379 -94.30545722 234.64141705 -94.29176331 224.6579895 C-94.276054 213.16379152 -94.27076498 201.66962698 -94.27149886 190.17541903 C-94.27217787 177.87360551 -94.26521604 165.57180465 -94.25605226 153.26999497 C-94.25393495 149.75476103 -94.25321299 146.23952918 -94.25281334 142.72429466 C-94.25179803 137.16980483 -94.24560613 131.61534235 -94.2356472 126.06086159 C-94.23276212 124.03904005 -94.23148856 122.01721536 -94.23207474 119.99539185 C-94.23386147 110.06845531 -94.12266093 100.16407433 -93.65109253 90.24705505 C-93.61398767 89.44195564 -93.5768828 88.63685624 -93.53865355 87.80735987 C-92.20047134 62.62940345 -81.69067509 39.94568146 -63.46095276 22.50198364 C-45.52767542 6.96352285 -23.46922394 -0.05838454 0 0 Z " fill="#EE9316" transform="translate(143.08595275878906,50.873016357421875)"/>
<path d="M0 0 C1.24842241 -0.00282738 2.49684483 -0.00565475 3.78309822 -0.00856781 C9.70762807 -0.02192475 15.63214507 -0.03186632 21.55668777 -0.0357697 C28.31085554 -0.0402497 35.06482089 -0.05783368 41.81892723 -0.0867703 C47.74291645 -0.11123991 53.66685684 -0.11872541 59.59089851 -0.12044525 C62.07798431 -0.12343884 64.56506996 -0.13135323 67.05212212 -0.14463043 C81.7440157 -0.21751858 95.80602523 0.44971333 110.25390625 3.203125 C111.40793442 3.41563904 112.56196259 3.62815308 113.7509613 3.84710693 C132.35286032 7.51970787 148.98238202 19.88542194 159.41796875 35.42578125 C173.15913212 57.65067467 173.72502532 82.52110486 173.65234375 107.8984375 C173.65437118 110.42748091 173.65728815 112.95652375 173.66104126 115.48556519 C173.66598908 121.42048326 173.65565217 127.35523909 173.63958895 133.29013336 C173.6267138 138.65628196 173.63583467 144.0222166 173.65049875 149.38835156 C173.66589969 155.2659329 173.66408456 161.14340132 173.65535355 167.02099228 C173.65337303 169.49018269 173.65573386 171.95938105 173.66279221 174.42856216 C173.73042854 204.72078363 169.93010285 231.56891134 148.16796875 254.390625 C132.28939337 269.50183429 110.8866784 274.6859495 89.61523438 276.33129883 C88.52803352 276.41615697 87.44083267 276.50101511 86.32068634 276.58844471 C76.05073677 277.32447563 65.84106297 277.37015544 55.55134583 277.20062828 C52.36280364 277.15062088 49.17454147 277.11955802 45.98571777 277.09346008 C36.94235448 277.01830832 27.89951774 276.92679483 18.85693359 276.78491211 C13.27141102 276.6986007 7.68645417 276.64671405 2.10035706 276.61686134 C-0.00799901 276.59900582 -2.11628975 276.56832902 -4.22425842 276.52414513 C-17.02827827 275.77084291 -17.02827827 275.77084291 -28.42724609 280.58398438 C-30.25709578 282.38509568 -30.25709578 282.38509568 -31.74609375 284.203125 C-32.65617187 285.03457031 -33.56625 285.86601562 -34.50390625 286.72265625 C-35.28507812 287.47933594 -36.06625 288.23601562 -36.87109375 289.015625 C-49.23262132 300.34415584 -66.48443398 312.11610371 -83.55859375 313.515625 C-84.61046875 313.4125 -85.66234375 313.309375 -86.74609375 313.203125 C-89.49932719 309.07327483 -88.60758642 305.85553562 -87.74609375 301.203125 C-86.85729248 297.46116259 -85.81723417 293.77153843 -84.74609375 290.078125 C-83.03417493 284.12678458 -81.42914532 278.36766537 -80.74609375 272.203125 C-81.28234375 272.079375 -81.81859375 271.955625 -82.37109375 271.828125 C-96.86330899 268.01438415 -108.44489923 260.94163438 -118.74609375 250.203125 C-119.3596875 249.58566406 -119.97328125 248.96820313 -120.60546875 248.33203125 C-136.1780007 231.59557294 -139.88121804 206.39989151 -139.90722656 184.47119141 C-139.91219147 183.44847137 -139.91715637 182.42575134 -139.92227173 181.37203979 C-139.93677513 178.01624861 -139.94367724 174.66050477 -139.94921875 171.3046875 C-139.95204613 170.1473045 -139.9548735 168.98992149 -139.95778656 167.79746628 C-139.97273487 161.66657029 -139.98199056 155.53569755 -139.98632812 149.40478516 C-139.99179139 143.12708933 -140.0157868 136.84961271 -140.04430008 130.57198524 C-140.06308884 125.69696467 -140.06814072 120.82199507 -140.069664 115.94694138 C-140.07265701 113.63569319 -140.08056931 111.32444516 -140.09384918 109.01323318 C-140.16971958 94.7881845 -139.38001431 81.1947068 -136.74609375 67.203125 C-136.53486877 66.06743073 -136.3236438 64.93173645 -136.10601807 63.7616272 C-135.67887165 61.57019797 -135.21886913 59.38516523 -134.74609375 57.203125 C-134.04484375 57.18894531 -133.34359375 57.17476562 -132.62109375 57.16015625 C-125.79474247 56.8169837 -120.98565786 55.72176628 -115.74609375 51.203125 C-111.94725461 46.91411307 -112.05561562 41.6998065 -111.74609375 36.203125 C-110.75609375 36.203125 -109.76609375 36.203125 -108.74609375 36.203125 C-108.62234375 35.56375 -108.49859375 34.924375 -108.37109375 34.265625 C-108.06171875 33.2446875 -108.06171875 33.2446875 -107.74609375 32.203125 C-107.08609375 31.873125 -106.42609375 31.543125 -105.74609375 31.203125 C-105.63652344 31.904375 -105.52695313 32.605625 -105.4140625 33.328125 C-103.88837256 43.8387205 -103.88837256 43.8387205 -98.37109375 52.578125 C-92.85181927 55.99481872 -88.20363686 57.06856892 -81.74609375 56.203125 C-76.38920012 54.51709075 -73.32131362 51.10049735 -70.62890625 46.27734375 C-68.94273607 42.31558991 -69.08291495 39.17043193 -70.4453125 35.12890625 C-73.06261028 29.1543995 -76.6491068 26.54964106 -82.62109375 23.953125 C-83.32234375 23.705625 -84.02359375 23.458125 -84.74609375 23.203125 C-85.21496035 20.07734767 -85.16868251 17.92401171 -83.55078125 15.1640625 C-80.8597833 11.55352756 -77.92746276 8.38449401 -74.74609375 5.203125 C-73.51097296 3.07003308 -73.51097296 3.07003308 -72.74609375 1.203125 C-72.74609375 2.193125 -72.74609375 3.183125 -72.74609375 4.203125 C-71.75416016 3.97109375 -71.75416016 3.97109375 -70.7421875 3.734375 C-67.10673158 3.089757 -63.48913334 2.88766459 -59.80859375 2.703125 C-54.3892424 2.43693579 -54.3892424 2.43693579 -49.01441956 1.71990967 C-45.19590363 1.11612944 -41.39870946 0.85009924 -37.54272461 0.65332031 C-36.72333625 0.61135151 -35.90394789 0.56938271 -35.05972958 0.52614212 C-23.38003012 -0.01417045 -11.68972813 0.01810072 0 0 Z " fill="#FCE8BA" transform="translate(239.74609375,109.796875)"/>
<path d="M0 0 C1.11246094 -0.02900391 2.22492188 -0.05800781 3.37109375 -0.08789062 C13.10184819 -0.16238992 20.27543393 2.03653882 27.5 8.67578125 C33.35323669 15.06251608 35.53783836 22.78767846 35.38671875 31.296875 C34.31122466 39.68355616 30.33101152 47.60135444 23.8984375 53.11328125 C13.27695041 59.47630835 -0.0120515 58.39586285 -12 57.3125 C-13.69295345 55.61954655 -13.12749729 53.48353516 -13.12939453 51.16601562 C-13.13412277 49.51925842 -13.13412277 49.51925842 -13.13894653 47.8392334 C-13.1369223 46.64447388 -13.13489807 45.44971436 -13.1328125 44.21875 C-13.13376923 43.00175415 -13.13472595 41.7847583 -13.13571167 40.53088379 C-13.13639372 37.95174101 -13.13453772 35.37259653 -13.13037109 32.79345703 C-13.12502322 28.82971364 -13.13031529 24.86608358 -13.13671875 20.90234375 C-13.13605797 18.40364558 -13.13477682 15.90494748 -13.1328125 13.40625 C-13.13483673 12.21149048 -13.13686096 11.01673096 -13.13894653 9.7857666 C-13.13579437 8.68792847 -13.13264221 7.59009033 -13.12939453 6.45898438 C-13.12859894 5.4871521 -13.12780334 4.51531982 -13.12698364 3.51403809 C-12.80373476 -2.09018546 -4.24947656 0.03593131 0 0 Z " fill="#322515" transform="translate(170,187.6875)"/>
<path d="M0 0 C6.38947565 2.86169566 10.16170036 7.80184068 13.3984375 13.84375 C16.31668294 22.82565512 15.56947372 32.90744802 11.3984375 41.29296875 C10.26181171 43.5853275 10.26181171 43.5853275 10.5234375 47.34375 C11.2040625 48.00375 11.8846875 48.66375 12.5859375 49.34375 C13.2253125 50.00375 13.8646875 50.66375 14.5234375 51.34375 C14.34590137 54.36186422 13.68608535 55.18110215 11.5234375 57.34375 C7.83586995 57.18342098 6.09255271 56.94843491 3.5234375 54.21875 C2.8634375 53.6 2.2034375 52.98125 1.5234375 52.34375 C-1.28894141 52.54684162 -1.28894141 52.54684162 -4.4765625 53.34375 C-12.10318398 54.17814045 -19.17589015 52.73271665 -25.30078125 47.90625 C-31.1874601 41.73784093 -33.65628416 33.5993665 -33.9765625 25.21875 C-33.62441354 16.42638572 -30.11835899 10.5947289 -24.453125 4.0703125 C-17.60629295 -1.91051708 -8.55699268 -2.26746809 0 0 Z " fill="#2F2313" transform="translate(159.4765625,264.65625)"/>
<path d="M0 0 C5.479325 3.32116636 9.50751264 9.64753792 11.5 15.625 C12.89651239 35.4355258 12.89651239 35.4355258 6.5 43.625 C1.80430413 48.94754848 -3.70421535 51.94349376 -10.7265625 52.94140625 C-16.44613128 53.24605682 -20.84174203 51.96636648 -25.5 48.625 C-32.03258139 42.65404325 -34.81003883 35.64250942 -35.80859375 26.93359375 C-36.20695768 18.06094251 -33.89585387 10.5703356 -27.90625 3.83203125 C-20.51242061 -2.59984585 -9.07650817 -3.78783412 0 0 Z " fill="#302314" transform="translate(262.5,265.375)"/>
<path d="M0 0 C3.96 0 7.92 0 12 0 C16.7759763 8.84851423 20.23176007 18.11002705 23.73095703 27.51464844 C24.7538421 30.26031311 25.78845724 33.00135803 26.82421875 35.7421875 C27.48247432 37.49973668 28.14005055 39.25754048 28.796875 41.015625 C29.10413513 41.82823792 29.41139526 42.64085083 29.72796631 43.47808838 C31.26259621 47.62719234 32.57878919 51.56081938 33 56 C32 57 32 57 29.49609375 57.09765625 C28.48675781 57.08605469 27.47742188 57.07445312 26.4375 57.0625 C25.42558594 57.05347656 24.41367188 57.04445312 23.37109375 57.03515625 C22.19740234 57.01775391 22.19740234 57.01775391 21 57 C19.68 53.7 18.36 50.4 17 47 C10.07 47 3.14 47 -4 47 C-5.32 49.97 -6.64 52.94 -8 56 C-9 57 -9 57 -11.50390625 57.09765625 C-12.51324219 57.08605469 -13.52257812 57.07445312 -14.5625 57.0625 C-15.57441406 57.05347656 -16.58632812 57.04445312 -17.62890625 57.03515625 C-18.41136719 57.02355469 -19.19382813 57.01195312 -20 57 C-20.57411177 50.99696324 -18.51553345 46.27022565 -16.38671875 40.78125 C-16.01650101 39.80514771 -15.64628326 38.82904541 -15.2648468 37.82336426 C-14.48173678 35.76410048 -13.69388369 33.70663499 -12.90161133 31.65087891 C-11.6930996 28.51453215 -10.49861004 25.37313486 -9.30664062 22.23046875 C-8.5424813 20.22625171 -7.77753337 18.22233513 -7.01171875 16.21875 C-6.65534836 15.28421997 -6.29897797 14.34968994 -5.93180847 13.38684082 C-4.15867944 8.79345827 -2.30311206 4.35327338 0 0 Z " fill="#322515" transform="translate(226,188)"/>
<path d="M0 0 C0.9375 2.0625 0.9375 2.0625 1 5 C-0.58841253 6.96426226 -2.35487112 8.59672377 -4.2109375 10.30859375 C-8.18331799 14.06414125 -9.37831085 17.6534733 -10 23 C-8.948125 23.2475 -7.89625 23.495 -6.8125 23.75 C-1.47821128 25.3201737 1.6256646 27.95552831 4.3125 32.8125 C6.08214675 36.73618398 6.69643847 39.66660507 6 44 C3.67615117 49.05722841 0.68743793 52.91615926 -4 56 C-9.57413253 57.85804418 -14.94275568 57.80631384 -20.3125 55.3125 C-25.93864591 52.12472349 -28.29530094 48.14702923 -30 42 C-30.78768577 33.16143288 -30.97423487 24.68465387 -26 17 C-25.55269531 16.30519531 -25.10539063 15.61039063 -24.64453125 14.89453125 C-19.26586572 7.20866334 -10.12836344 -2.96439906 0 0 Z " fill="#301F11" transform="translate(165,110)"/>
<path d="M0 0 C2 2 2 2 2.0625 4.25 C0.68562403 7.81367899 -1.41924144 9.1820546 -4.34375 11.53125 C-6.56123853 13.49770209 -7.35169806 15.11865805 -8 18 C-8.16757757 21.20870233 -8.16757757 21.20870233 -8 24 C-6.205625 24.5259375 -6.205625 24.5259375 -4.375 25.0625 C1.00193189 27.04900414 4.45862071 30.91724142 7 36 C7.53127855 40.84247335 7.52541441 44.83970984 5.5 49.3125 C0.58991664 54.59083962 -3.59077445 57.2850679 -10.9375 57.6875 C-17.22136684 57.40910084 -21.49517902 55.3563104 -26 51 C-29.81570542 45.03796028 -30.7341129 38.95856314 -30 32 C-28.20394275 24.18971675 -25.36615066 17.94523166 -20 12 C-19.45214844 11.38382813 -18.90429688 10.76765625 -18.33984375 10.1328125 C-13.76099447 5.27234834 -7.2593315 -1.49456825 0 0 Z " fill="#2B180A" transform="translate(121,110)"/>
<path d="M0 0 C0.9075 0.00257813 1.815 0.00515625 2.75 0.0078125 C4.11125 0.00394531 4.11125 0.00394531 5.5 0 C7.75 0.1328125 7.75 0.1328125 8.75 1.1328125 C8.88544243 3.7504136 8.96057132 6.34535139 8.99609375 8.96484375 C9.02904085 10.5839896 9.06225235 12.2031301 9.09570312 13.82226562 C9.14307748 16.38318064 9.187481 18.94407524 9.22680664 21.50512695 C9.26657661 23.97110307 9.31811994 26.43662088 9.37109375 28.90234375 C9.3795079 29.66601761 9.38792206 30.42969147 9.39659119 31.21650696 C9.50949529 36.48787839 9.50949529 36.48787839 11.75 41.1328125 C14.19666506 42.35614503 15.54229374 42.17828073 18.25 41.9453125 C19.0440625 41.88988281 19.838125 41.83445312 20.65625 41.77734375 C22.83587202 41.33588846 22.83587202 41.33588846 23.85717773 39.60693359 C25.13101767 36.07696535 25.08804794 32.61066973 25.12890625 28.90234375 C25.14590073 28.1113176 25.1628952 27.32029144 25.18040466 26.5052948 C25.23342813 23.98538117 25.27380209 21.46548366 25.3125 18.9453125 C25.35639505 16.41451082 25.40302481 13.88383785 25.45530701 11.35319519 C25.48732611 9.77965478 25.51419679 8.2059999 25.53553772 6.63227844 C25.63822651 1.24458599 25.63822651 1.24458599 26.75 0.1328125 C28.41429051 0.03457313 30.08281931 0.00307619 31.75 0.0078125 C33.11125 0.00394531 33.11125 0.00394531 34.5 0 C36.75 0.1328125 36.75 0.1328125 37.75 1.1328125 C37.88844825 3.76657561 37.96318966 6.37215196 37.98828125 9.0078125 C37.996353 9.80630615 38.00442474 10.6047998 38.01274109 11.42749023 C38.02660619 13.12562883 38.03731743 14.82379559 38.04516602 16.52197266 C38.06224653 19.09463424 38.10609156 21.66596575 38.15039062 24.23828125 C38.3208789 42.09030991 38.3208789 42.09030991 32.33740234 48.69116211 C27.04376771 53.47882494 22.23926282 54.56036708 15.30859375 54.375 C9.39097877 53.81485935 5.35539395 52.17565931 1.375 47.6953125 C-0.0234375 45.94921875 -0.0234375 45.94921875 -1.25 44.1328125 C-1.60054443 43.6186377 -1.95108887 43.10446289 -2.31225586 42.57470703 C-3.7464174 38.84013693 -3.51482961 35.21175137 -3.48046875 31.24609375 C-3.48001053 30.38847946 -3.47955231 29.53086517 -3.4790802 28.64726257 C-3.47606463 26.83929048 -3.46819915 25.03132083 -3.45581055 23.22338867 C-3.43749832 20.44505703 -3.43530133 17.6670577 -3.43554688 14.88867188 C-3.43063359 13.1328096 -3.42480611 11.37694959 -3.41796875 9.62109375 C-3.41685593 8.78572586 -3.4157431 7.95035797 -3.41459656 7.0896759 C-3.35733499 0.19817602 -3.35733499 0.19817602 0 0 Z " fill="#322616" transform="translate(183.25,263.8671875)"/>
<path d="M0 0 C3.01570398 2.31977229 4.70901442 4.48716826 6.4375 7.875 C6.4375 10.0625 6.4375 10.0625 5.4375 11.875 C3.625 13.6875 3.625 13.6875 1.4375 14.875 C-0.5625 14.8125 -0.5625 14.8125 -2.5625 13.875 C-3.18125 13.194375 -3.8 12.51375 -4.4375 11.8125 C-6.47995941 9.56211623 -6.47995941 9.56211623 -9.75 9.5625 C-12.46326459 9.56753291 -12.46326459 9.56753291 -13.5625 10.875 C-13.60313832 12.54117115 -13.605221 14.20888095 -13.5625 15.875 C-12.4075 16.4525 -11.2525 17.03 -10.0625 17.625 C-8.97195313 18.17607422 -8.97195313 18.17607422 -7.859375 18.73828125 C-6.38208288 19.4693901 -4.89294056 20.17726514 -3.390625 20.85546875 C1.7213199 23.2096539 4.85289566 25.70579132 7.4375 30.875 C7.95863171 36.10340334 8.08023534 40.51536754 5.8125 45.3125 C2.10221359 49.31570376 -1.9646135 52.505986 -7.54296875 53.078125 C-13.9496256 53.21419559 -19.40739844 52.54825551 -24.4296875 48.29296875 C-27.03510957 45.53746476 -28.53905564 43.92999609 -28.625 40.0625 C-27.5625 37.875 -27.5625 37.875 -24.5625 35.875 C-21.15907534 36.05412761 -19.74930358 36.71693543 -17.125 38.9375 C-13.98172946 41.31411919 -12.41809941 41.37790427 -8.5625 40.875 C-7.5725 40.215 -6.5825 39.555 -5.5625 38.875 C-5.3122843 35.79134129 -5.3122843 35.79134129 -5.5625 32.875 C-6.38041016 32.63716797 -6.38041016 32.63716797 -7.21484375 32.39453125 C-13.93473603 30.31538509 -20.63995896 27.88610289 -25.625 22.75 C-27.54731331 16.85490585 -27.59471636 11.0585346 -24.9375 5.4375 C-17.89434879 -2.16168947 -9.81798698 -3.10041694 0 0 Z " fill="#2F2213" transform="translate(381.5625,265.125)"/>
<path d="M0 0 C1.20970459 0.00523682 2.41940918 0.01047363 3.66577148 0.01586914 C4.97094727 0.0190918 6.27612305 0.02231445 7.62084961 0.02563477 C9.00952213 0.03399138 10.39819401 0.04245634 11.78686523 0.05102539 C13.17944179 0.05603873 14.57202005 0.06060193 15.96459961 0.06469727 C19.38456394 0.07653105 22.80444367 0.09301659 26.22436523 0.11352539 C26.22436523 3.74352539 26.22436523 7.37352539 26.22436523 11.11352539 C19.95436523 11.11352539 13.68436523 11.11352539 7.22436523 11.11352539 C7.22436523 14.74352539 7.22436523 18.37352539 7.22436523 22.11352539 C13.49436523 22.11352539 19.76436523 22.11352539 26.22436523 22.11352539 C26.22436523 25.08352539 26.22436523 28.05352539 26.22436523 31.11352539 C20.28436523 31.44352539 14.34436523 31.77352539 8.22436523 32.11352539 C7.89436523 35.41352539 7.56436523 38.71352539 7.22436523 42.11352539 C9.26430664 42.09612305 9.26430664 42.09612305 11.34545898 42.07836914 C13.11759304 42.06899277 14.88972856 42.05989241 16.66186523 42.05102539 C17.55969727 42.04264648 18.4575293 42.03426758 19.38256836 42.02563477 C20.23657227 42.02241211 21.09057617 42.01918945 21.97045898 42.01586914 C22.76121826 42.01063232 23.55197754 42.00539551 24.36669922 42 C26.22436523 42.11352539 26.22436523 42.11352539 27.22436523 43.11352539 C27.32227093 44.61090663 27.35411388 46.11295431 27.34936523 47.61352539 C27.35323242 48.83555664 27.35323242 48.83555664 27.35717773 50.08227539 C27.22436523 52.11352539 27.22436523 52.11352539 26.22436523 53.11352539 C24.0908335 53.21355828 21.95398982 53.24433587 19.81811523 53.24633789 C18.51745117 53.24762695 17.21678711 53.24891602 15.87670898 53.25024414 C15.19592285 53.24814941 14.51513672 53.24605469 13.8137207 53.24389648 C11.73308008 53.23854779 9.65265535 53.24384219 7.57202148 53.25024414 C5.62102539 53.24831055 5.62102539 53.24831055 3.63061523 53.24633789 C2.42727539 53.24520996 1.22393555 53.24408203 -0.01586914 53.24291992 C-2.77563477 53.11352539 -2.77563477 53.11352539 -3.77563477 52.11352539 C-3.87417899 50.52289229 -3.9036217 48.92791062 -3.9050293 47.33422852 C-3.90818146 46.31647339 -3.91133362 45.29871826 -3.9145813 44.25012207 C-3.91255707 43.14285767 -3.91053284 42.03559326 -3.90844727 40.89477539 C-3.90940399 39.76656372 -3.91036072 38.63835205 -3.91134644 37.47595215 C-3.91202844 35.08512313 -3.91017274 32.69429228 -3.90600586 30.3034668 C-3.90065792 26.62943388 -3.90595019 22.95552322 -3.91235352 19.28149414 C-3.91169274 16.96508762 -3.91041158 14.64868117 -3.90844727 12.33227539 C-3.91148361 10.67137878 -3.91148361 10.67137878 -3.9145813 8.97692871 C-3.91142914 7.95917358 -3.90827698 6.94141846 -3.9050293 5.89282227 C-3.9042337 4.99204956 -3.90343811 4.09127686 -3.90261841 3.16320801 C-3.7043862 -0.03652 -3.24512241 0.13272776 0 0 Z " fill="#2F2213" transform="translate(321.775634765625,263.886474609375)"/>
<path d="M0 0 C1.91470844 -0.13547465 3.83218481 -0.23220869 5.75 -0.3125 C6.81734375 -0.37050781 7.8846875 -0.42851562 8.984375 -0.48828125 C12 0 12 0 14.125 2.0625 C16.27298689 5.42767946 18.30990917 8.82392926 20.25 12.3125 C20.61351562 12.95767578 20.97703125 13.60285156 21.3515625 14.26757812 C22.23836205 15.84281416 23.11974563 17.42109714 24 19 C27.28816124 15.12678305 29.79349086 11.10466735 32.25 6.6875 C32.61351562 6.04232422 32.97703125 5.39714844 33.3515625 4.73242188 C34.23836205 3.15718584 35.11974563 1.57890286 36 0 C40.29 0 44.58 0 49 0 C48.01374268 4.93128658 47.02874142 6.78235507 44.21875 10.76953125 C33.79060048 26.10866308 28.05669114 37.79616319 30 57 C28.18757948 57.02687279 26.37504767 57.04633715 24.5625 57.0625 C23.55316406 57.07410156 22.54382813 57.08570313 21.50390625 57.09765625 C19 57 19 57 18 56 C17.98847457 54.53608151 18.03504099 53.07164382 18.10546875 51.609375 C18.46110087 35.36460767 14.0048536 25.27320044 5 12 C4.0263651 10.55754285 3.06212469 9.1086801 2.109375 7.65234375 C1.70170898 7.04253662 1.29404297 6.43272949 0.87402344 5.80444336 C0 4 0 4 0 0 Z " fill="#322515" transform="translate(317,188)"/>
<path d="M0 0 C1.81242052 -0.02687279 3.62495233 -0.04633715 5.4375 -0.0625 C6.44683594 -0.07410156 7.45617187 -0.08570313 8.49609375 -0.09765625 C11 0 11 0 12 1 C12.0927833 2.38160115 12.11747043 3.76788038 12.11352539 5.15258789 C12.11344986 6.03342545 12.11337433 6.914263 12.11329651 7.8217926 C12.10813522 8.77907761 12.10297394 9.73636261 12.09765625 10.72265625 C12.0962413 11.69786728 12.09482635 12.67307831 12.09336853 13.67784119 C12.08775133 16.80609143 12.07519593 19.93427123 12.0625 23.0625 C12.05748722 25.17773334 12.05292393 27.29296781 12.04882812 29.40820312 C12.03777631 34.60549296 12.02102146 39.80274145 12 45 C12.60062256 44.99476318 13.20124512 44.98952637 13.82006836 44.98413086 C16.52586838 44.96341986 19.23165177 44.95035875 21.9375 44.9375 C22.88302734 44.92912109 23.82855469 44.92074219 24.80273438 44.91210938 C26.15141602 44.90727539 26.15141602 44.90727539 27.52734375 44.90234375 C28.35999756 44.89710693 29.19265137 44.89187012 30.05053711 44.88647461 C32 45 32 45 33 46 C33.09823937 47.66429051 33.12973631 49.33281931 33.125 51 C33.12886719 52.36125 33.12886719 52.36125 33.1328125 53.75 C33 56 33 56 32 57 C29.72052208 57.1002093 27.43792865 57.13081303 25.15625 57.1328125 C24.47195923 57.13376923 23.78766846 57.13472595 23.0826416 57.13571167 C21.63338123 57.1363933 20.18411782 57.13454023 18.73486328 57.13037109 C16.50937072 57.12502252 14.28407999 57.1303166 12.05859375 57.13671875 C10.65364539 57.13605797 9.24869715 57.1347768 7.84375 57.1328125 C6.55662109 57.13168457 5.26949219 57.13055664 3.94335938 57.12939453 C1 57 1 57 0 56 C-0.09365006 54.2507128 -0.11744438 52.49763746 -0.11352539 50.74584961 C-0.11344986 49.62476303 -0.11337433 48.50367645 -0.11329651 47.34861755 C-0.10813522 46.1288472 -0.10297394 44.90907684 -0.09765625 43.65234375 C-0.0962413 42.41078018 -0.09482635 41.16921661 -0.09336853 39.89002991 C-0.08870591 36.58394509 -0.07971497 33.27792854 -0.06866455 29.97186279 C-0.05844827 26.6003885 -0.05387045 23.22890717 -0.04882812 19.85742188 C-0.03777395 13.23826225 -0.02101736 6.61913507 0 0 Z " fill="#2F2212" transform="translate(290,188)"/>
<path d="M0 0 C0.73541016 0.00202423 1.47082031 0.00404846 2.22851562 0.00613403 C2.97939453 0.00517731 3.73027344 0.00422058 4.50390625 0.00323486 C6.09440189 0.00255315 7.6849003 0.00440682 9.27539062 0.00857544 C11.71816217 0.01392386 14.16074984 0.00863019 16.60351562 0.00222778 C18.1451827 0.00288857 19.68684966 0.00416973 21.22851562 0.00613403 C21.96392578 0.0041098 22.69933594 0.00208557 23.45703125 0 C28.61356402 0.02399493 28.61356402 0.02399493 29.72851562 1.13894653 C29.82642132 2.63632778 29.85826427 4.13837545 29.85351562 5.63894653 C29.85738281 6.86097778 29.85738281 6.86097778 29.86132812 8.10769653 C29.72851562 10.13894653 29.72851562 10.13894653 28.72851562 11.13894653 C26.87564061 11.21121155 25.02017685 11.22275873 23.16601562 11.20144653 C22.15410156 11.1924231 21.1421875 11.18339966 20.09960938 11.17410278 C18.92591797 11.15670044 18.92591797 11.15670044 17.72851562 11.13894653 C17.73637085 12.99410889 17.73637085 12.99410889 17.74438477 14.88674927 C17.76243124 19.45819378 17.77394633 24.02963512 17.78344727 28.60110474 C17.7884883 30.58288095 17.79532101 32.56465342 17.80395508 34.54641724 C17.81603077 37.38846762 17.82174608 40.23046901 17.82617188 43.07254028 C17.83133316 43.96420395 17.83649445 44.85586761 17.84181213 45.77455139 C17.84200739 47.89635255 17.79061593 50.01805433 17.72851562 52.13894653 C16.72851562 53.13894653 16.72851562 53.13894653 14.47851562 53.27175903 C13.57101562 53.26918091 12.66351563 53.26660278 11.72851562 53.26394653 C10.36726563 53.26781372 10.36726563 53.26781372 8.97851562 53.27175903 C6.72851562 53.13894653 6.72851562 53.13894653 5.72851562 52.13894653 C5.6398029 49.10916849 5.61332212 46.10227631 5.63085938 43.07254028 C5.63227432 42.16391739 5.63368927 41.25529449 5.63514709 40.31913757 C5.64076369 37.40487433 5.65331898 34.49068672 5.66601562 31.57644653 C5.67102849 29.60574451 5.67559176 27.6350413 5.6796875 25.66433716 C5.69073851 20.82251095 5.70801425 15.98074158 5.72851562 11.13894653 C4.94605469 11.1505481 4.16359375 11.16214966 3.35742188 11.17410278 C2.34550781 11.18312622 1.33359375 11.19214966 0.29101562 11.20144653 C-0.71832031 11.2130481 -1.72765625 11.22464966 -2.76757812 11.23660278 C-5.27148438 11.13894653 -5.27148438 11.13894653 -6.27148438 10.13894653 C-6.36939007 8.64156529 -6.40123302 7.13951761 -6.39648438 5.63894653 C-6.3990625 4.82425903 -6.40164063 4.00957153 -6.40429688 3.17019653 C-6.13473886 -0.95245542 -3.52126929 0.01638554 0 0 Z " fill="#322516" transform="translate(283.271484375,263.8610534667969)"/>
<path d="M0 0 C30.45542739 -0.02281584 60.91085362 -0.04051136 91.36628756 -0.05106533 C94.96237206 -0.05231603 98.55845654 -0.05361035 102.15454102 -0.05493164 C102.87045239 -0.05519395 103.58636376 -0.05545626 104.32396942 -0.05572652 C115.91372503 -0.06007704 127.50347568 -0.0679612 139.09322835 -0.0771528 C150.98664235 -0.08650651 162.88005376 -0.09205926 174.7734713 -0.09408849 C181.45327442 -0.09533711 188.13306852 -0.09846281 194.81286812 -0.10573006 C201.09921621 -0.11251389 207.38554839 -0.11461212 213.6718998 -0.11310768 C215.97975501 -0.11338294 218.28761075 -0.11537405 220.5954628 -0.11920547 C223.74595818 -0.12417957 226.89639349 -0.12298451 230.04689026 -0.12025452 C230.96032796 -0.12316736 231.87376566 -0.1260802 232.81488329 -0.12908131 C237.65145972 -0.11775143 242.23080223 0.18387399 247 1 C247 1.33 247 1.66 247 2 C243.38026598 3.31626692 240.90432869 4 237 4 C234.24792599 4.26659435 231.50146327 4.56937618 228.75390625 4.87890625 C225.95615902 5.00192776 223.71192879 4.65523112 221 4 C219.6078125 3.7215625 219.6078125 3.7215625 218.1875 3.4375 C217.465625 3.293125 216.74375 3.14875 216 3 C215.67 3.66 215.34 4.32 215 5 C214.4225 4.649375 213.845 4.29875 213.25 3.9375 C210.59841884 2.83267452 209.67266986 3.19819904 207 4 C206.01 3.505 206.01 3.505 205 3 C205 3.66 205 4.32 205 5 C204.2575 4.67 203.515 4.34 202.75 4 C199.86116688 2.77217129 199.86116688 2.77217129 196 3 C195.01 3.66 194.02 4.32 193 5 C192.319375 4.71125 191.63875 4.4225 190.9375 4.125 C186.64350678 2.48049196 182.54471892 2.86698384 178 3 C176.68 3 175.36 3 174 3 C173.01 3.33 172.02 3.66 171 4 C169.66327509 3.68053887 168.33027643 3.34533101 167 3 C165.26522228 2.98476162 163.52934954 3.03044101 161.796875 3.12109375 C160.32734375 3.19360352 160.32734375 3.19360352 158.828125 3.26757812 C157.81234375 3.32365234 156.7965625 3.37972656 155.75 3.4375 C154.71875 3.48970703 153.6875 3.54191406 152.625 3.59570312 C150.08300961 3.72515634 147.54143407 3.86011328 145 4 C144.67 3.34 144.34 2.68 144 2 C142.02 2 140.04 2 138 2 C137.67 2.66 137.34 3.32 137 4 C137 3.34 137 2.68 137 2 C135.9275 2.33 134.855 2.66 133.75 3 C130 4 130 4 126 4 C126 3.34 126 2.68 126 2 C125.01 2 124.02 2 123 2 C122.67 2.66 122.34 3.32 122 4 C121.01 3.67 120.02 3.34 119 3 C117.33157466 3.32441604 115.66519519 3.65939189 114 4 C109.78768916 4.15043967 106.11216844 3.82243369 102 3 C101.34 3.33 100.68 3.66 100 4 C97.94938967 3.75290429 95.90747329 3.43007496 93.875 3.0625 C92.77929688 2.86785156 91.68359375 2.67320313 90.5546875 2.47265625 C89.71164063 2.31667969 88.86859375 2.16070312 88 2 C87.67 2.66 87.34 3.32 87 4 C84.9375 4.625 84.9375 4.625 83 5 C83 4.34 83 3.68 83 3 C81.906875 3.185625 80.81375 3.37125 79.6875 3.5625 C76 4 76 4 73 3 C70.70546505 3.09406754 70.70546505 3.09406754 68.3125 3.4375 C67.50425781 3.53933594 66.69601563 3.64117187 65.86328125 3.74609375 C64.94095703 3.87177734 64.94095703 3.87177734 64 4 C64 3.34 64 2.68 64 2 C63.2575 2.33 62.515 2.66 61.75 3 C56.62864496 4.86231092 51.19636651 3.65988211 45.875 3.12109375 C43.28110681 3.0118401 41.44696009 3.2059144 39 4 C39 3.34 39 2.68 39 2 C38.43410156 2.15597656 37.86820313 2.31195313 37.28515625 2.47265625 C36.18494141 2.76462891 36.18494141 2.76462891 35.0625 3.0625 C33.96615234 3.35833984 33.96615234 3.35833984 32.84765625 3.66015625 C32.23792969 3.77230469 31.62820312 3.88445313 31 4 C30.67 3.67 30.34 3.34 30 3 C27.66055264 3.28730055 25.3260857 3.61936779 23 4 C23 3.34 23 2.68 23 2 C21.02 2.99 21.02 2.99 19 4 C18.01 3.34 17.02 2.68 16 2 C15.67 2.66 15.34 3.32 15 4 C9.72 3.34 4.44 2.68 -1 2 C-0.67 1.34 -0.34 0.68 0 0 Z " fill="#EAA31E" transform="translate(133,51)"/>
<path d="M0 0 C1.81242052 -0.02687279 3.62495233 -0.04633715 5.4375 -0.0625 C6.44683594 -0.07410156 7.45617187 -0.08570313 8.49609375 -0.09765625 C11 0 11 0 12 1 C12.09881593 2.71318946 12.12798969 4.43044803 12.12939453 6.14648438 C12.13254669 7.24432251 12.13569885 8.34216064 12.13894653 9.4732666 C12.1369223 10.66802612 12.13489807 11.86278564 12.1328125 13.09375 C12.13376923 14.31074585 12.13472595 15.5277417 12.13571167 16.78161621 C12.13639372 19.36075899 12.13453772 21.93990347 12.13037109 24.51904297 C12.12502322 28.48278636 12.13031529 32.44641642 12.13671875 36.41015625 C12.13605797 38.90885442 12.13477682 41.40755252 12.1328125 43.90625 C12.13483673 45.10100952 12.13686096 46.29576904 12.13894653 47.5267334 C12.13579437 48.62457153 12.13264221 49.72240967 12.12939453 50.85351562 C12.12820114 52.31126404 12.12820114 52.31126404 12.12698364 53.79846191 C12 56 12 56 11 57 C9.33570949 57.09823937 7.66718069 57.12973631 6 57.125 C4.63875 57.12886719 4.63875 57.12886719 3.25 57.1328125 C1 57 1 57 0 56 C-0.09365006 54.2507128 -0.11744438 52.49763746 -0.11352539 50.74584961 C-0.11344986 49.62476303 -0.11337433 48.50367645 -0.11329651 47.34861755 C-0.10813522 46.1288472 -0.10297394 44.90907684 -0.09765625 43.65234375 C-0.0962413 42.41078018 -0.09482635 41.16921661 -0.09336853 39.89002991 C-0.08870591 36.58394509 -0.07971497 33.27792854 -0.06866455 29.97186279 C-0.05844827 26.6003885 -0.05387045 23.22890717 -0.04882812 19.85742188 C-0.03777395 13.23826225 -0.02101736 6.61913507 0 0 Z " fill="#2E2212" transform="translate(266,188)"/>
<path d="M0 0 C13.91891892 0 13.91891892 0 19 4 C22.00059569 7.99608743 22.40724474 10.98793174 22.375 15.9375 C22.38273437 17.12214844 22.39046875 18.30679688 22.3984375 19.52734375 C21.87708163 24.07131791 20.58149332 27.39612706 17.34375 30.6796875 C10.83366783 34.90020687 8.83815107 34 0 34 C0 22.78 0 11.56 0 0 Z " fill="#F9E7BA" transform="translate(169,200)"/>
<path d="M0 0 C3.71246916 2.57017095 6.38466727 4.76440404 8 9 C8.71710305 16.1244654 8.81946239 22.80983682 5 29 C2.16424141 32.0720718 0.64240363 32.89675656 -3.5 33.5625 C-7.91893765 32.85231359 -9.24874064 31.45872606 -12 28 C-14.4658819 24.2795466 -14.36707083 20.446396 -14.375 16.125 C-14.39949219 15.43019531 -14.42398438 14.73539062 -14.44921875 14.01953125 C-14.47842438 8.85013539 -13.23131377 5.97885651 -10 2 C-6.79592697 -0.34965355 -3.89725235 -0.54561533 0 0 Z " fill="#F9E6B9" transform="translate(254,274)"/>
<path d="M0 0 C4.34092835 2.12790605 6.85095344 4.31341655 8.53515625 8.9375 C9.83239828 14.69333019 9.81715086 20.71784215 7 26 C6.443125 25.484375 5.88625 24.96875 5.3125 24.4375 C3.05914993 22.70523302 3.05914993 22.70523302 0.25 23.3125 C-0.86375 23.6528125 -0.86375 23.6528125 -2 24 C-2.33 24.99 -2.66 25.98 -3 27 C-2.04701223 28.36733028 -1.04625409 29.70264493 0 31 C0 31.66 0 32.32 0 33 C-4.22498264 33.41421398 -6.29090128 33.53182404 -9.75 30.9375 C-13.55680409 25.96750577 -15.57745657 21.41531621 -15.28125 15.046875 C-14.5712916 9.87995555 -13.05897973 5.60728426 -9.1875 2 C-5.59044416 -0.25697621 -4.14817884 -0.77778353 0 0 Z " fill="#F6E4B7" transform="translate(153,274)"/>
<path d="M0 0 C2.14642449 3.21963674 3.35881354 6.44429859 4.625 10.0625 C4.85445312 10.69994141 5.08390625 11.33738281 5.3203125 11.99414062 C7 16.738258 7 16.738258 7 19 C2.71 19 -1.58 19 -6 19 C-4.70024676 12.28460827 -2.70071112 6.27980887 0 0 Z " fill="#EEDEB4" transform="translate(232,204)"/>
<path d="M0 0 C29.7 0 59.4 0 90 0 C90 0.66 90 1.32 90 2 C66.625 2 66.625 2 60.5090332 1.90820312 C59.8551059 1.89844955 59.20117859 1.88869598 58.5274353 1.87864685 C56.36854738 1.84639348 54.20966437 1.81382308 52.05078125 1.78125 C50.55291269 1.75881023 49.05504383 1.73639025 47.55717468 1.71398926 C43.61656399 1.65500329 39.67595738 1.59574843 35.73535156 1.53643799 C31.7135441 1.47595282 27.69173283 1.4157214 23.66992188 1.35546875 C15.77994417 1.2372278 7.88997077 1.11870286 0 1 C0 0.67 0 0.34 0 0 Z " fill="#EC8307" transform="translate(230,387)"/>
<path d="M0 0 C3.31248187 -0.02888146 6.62493167 -0.04675799 9.9375 -0.0625 C10.88302734 -0.07087891 11.82855469 -0.07925781 12.80273438 -0.08789062 C14.15141602 -0.09272461 14.15141602 -0.09272461 15.52734375 -0.09765625 C16.77632446 -0.10551147 16.77632446 -0.10551147 18.05053711 -0.11352539 C20 0 20 0 21 1 C21.09823937 2.66429051 21.12973631 4.33281931 21.125 6 C21.12886719 7.36125 21.12886719 7.36125 21.1328125 8.75 C21 11 21 11 20 12 C17.70848583 12.08790975 15.41427476 12.10694038 13.12109375 12.09765625 C12.09110008 12.09553383 12.09110008 12.09553383 11.04029846 12.09336853 C8.83932199 12.08775479 6.63844591 12.07520007 4.4375 12.0625 C2.94856917 12.05748676 1.45963676 12.05292355 -0.02929688 12.04882812 C-3.68623075 12.03778093 -7.34310558 12.02050713 -11 12 C-11 11.67 -11 11.34 -11 11 C-1.1 11 8.8 11 19 11 C19 8.03 19 5.06 19 2 C12.73 2 6.46 2 0 2 C0 1.34 0 0.68 0 0 Z " fill="#47392B" transform="translate(302,233)"/>
<path d="M0 0 C0.33 0.66 0.66 1.32 1 2 C0.33333333 4 -0.33333333 6 -1 8 C-1.27580863 10.28452807 -1.4843786 12.57818383 -1.625 14.875 C-1.69976562 16.02742188 -1.77453125 17.17984375 -1.8515625 18.3671875 C-1.90054688 19.23601562 -1.94953125 20.10484375 -2 21 C-2.33 21 -2.66 21 -3 21 C-3.33 18.69 -3.66 16.38 -4 14 C-4.66 15.32 -5.32 16.64 -6 18 C-7.32 18 -8.64 18 -10 18 C-12.0625 15.25 -12.0625 15.25 -14 12 C-14.98866506 10.65824027 -15.9838154 9.32103998 -17 8 C-14.04049858 9.37405423 -11.58504604 11.01776932 -9 13 C-7.87064804 11.58680023 -6.74669374 10.16928595 -5.625 8.75 C-4.68527344 7.56664062 -4.68527344 7.56664062 -3.7265625 6.359375 C-2.21089263 4.28818811 -1.05780366 2.32930503 0 0 Z " fill="#E7B342" transform="translate(137,128)"/>
<path d="M0 0 C1.58206057 0.00667536 3.16410534 0.0186375 4.74609375 0.03515625 C5.55240234 0.03966797 6.35871094 0.04417969 7.18945312 0.04882812 C9.18753131 0.06065107 11.18557158 0.07858711 13.18359375 0.09765625 C13.18359375 0.75765625 13.18359375 1.41765625 13.18359375 2.09765625 C7.90359375 2.09765625 2.62359375 2.09765625 -2.81640625 2.09765625 C-2.81640625 4.73765625 -2.81640625 7.37765625 -2.81640625 10.09765625 C-3.80640625 10.59265625 -3.80640625 10.59265625 -4.81640625 11.09765625 C-4.84328776 9.45191059 -4.86274748 7.80604212 -4.87890625 6.16015625 C-4.89050781 5.24363281 -4.90210938 4.32710938 -4.9140625 3.3828125 C-4.74806315 -0.5015722 -4.08167578 0.10444411 0 0 Z " fill="#C5BA9A" transform="translate(333.81640625,294.90234375)"/>
<path d="M0 0 C1 2 2 4 3 6 C2.70351563 6.54140625 2.40703125 7.0828125 2.1015625 7.640625 C0.56788446 10.92552405 0.53668429 14.18620877 0.375 17.75 C0.33632813 18.44738281 0.29765625 19.14476562 0.2578125 19.86328125 C0.16401376 21.57510818 0.08093826 23.28751682 0 25 C-0.66 25 -1.32 25 -2 25 C-2.27733386 16.4488728 -1.52016163 8.41518047 0 0 Z " fill="#F4A61A" transform="translate(52,127)"/>
<path d="M0 0 C-0.33 0.99 -0.66 1.98 -1 3 C-1.93972656 3.09087891 -1.93972656 3.09087891 -2.8984375 3.18359375 C-4.12433594 3.30927734 -4.12433594 3.30927734 -5.375 3.4375 C-6.18710938 3.51871094 -6.99921875 3.59992187 -7.8359375 3.68359375 C-10.04272805 3.89090114 -10.04272805 3.89090114 -12 5 C-14.69565202 4.83219837 -17.32405554 4.38844355 -20 4 C-13.67546278 0.31068662 -7.12737257 -0.25454902 0 0 Z " fill="#CB8E1D" transform="translate(132,52)"/>
<path d="M0 0 C0.33 0 0.66 0 1 0 C0.85786703 1.89611434 0.71113093 3.79188394 0.5625 5.6875 C0.48128906 6.74324219 0.40007812 7.79898437 0.31640625 8.88671875 C0.03548319 11.65086297 -0.40156852 14.28945741 -1 17 C-3.18994248 13.71508627 -3.35277339 12.16904361 -3.625 8.3125 C-3.69976562 7.31863281 -3.77453125 6.32476562 -3.8515625 5.30078125 C-3.90054687 4.54152344 -3.94953125 3.78226562 -4 3 C-3.01 2.67 -2.02 2.34 -1 2 C-0.67 1.34 -0.34 0.68 0 0 Z " fill="#C47113" transform="translate(461,374)"/>
<path d="M0 0 C0.33 0.99 0.66 1.98 1 3 C1.680625 2.835 2.36125 2.67 3.0625 2.5 C6.4164822 1.92910941 9.60389805 1.93340977 13 2 C9.42368771 4.38420819 7.01689261 5.13142447 2.8125 5.0625 C0.9253125 5.0315625 0.9253125 5.0315625 -1 5 C-0.67 3.35 -0.34 1.7 0 0 Z " fill="#FCCD66" transform="translate(166,111)"/>
<path d="M0 0 C1.20628008 2.33214148 2.1654738 4.49642139 3 7 C2.01 7.495 2.01 7.495 1 8 C0.30906104 10.57951874 0.30906104 10.57951874 -0.125 13.5625 C-0.29257812 14.57441406 -0.46015625 15.58632812 -0.6328125 16.62890625 C-0.75398438 17.41136719 -0.87515625 18.19382813 -1 19 C-1.33 19 -1.66 19 -2 19 C-2.24794402 12.4294834 -1.32388229 6.43028541 0 0 Z " fill="#936615" transform="translate(52,121)"/>
<path d="M0 0 C1.22589844 0.01353516 1.22589844 0.01353516 2.4765625 0.02734375 C3.41628906 0.04474609 3.41628906 0.04474609 4.375 0.0625 C4.375 0.7225 4.375 1.3825 4.375 2.0625 C1.075 2.3925 -2.225 2.7225 -5.625 3.0625 C-5.955 2.4025 -6.285 1.7425 -6.625 1.0625 C-4.21954362 -0.14022819 -2.67503047 -0.03821472 0 0 Z " fill="#D18C1D" transform="translate(384.625,51.9375)"/>
<path d="M0 0 C0 0.66 0 1.32 0 2 C0.66 2.33 1.32 2.66 2 3 C-2.29 3 -6.58 3 -11 3 C-4.75 -0.125 -4.75 -0.125 0 0 Z " fill="#EF8612" transform="translate(330,458)"/>
<path d="M0 0 C2.475 0.99 2.475 0.99 5 2 C5 2.66 5 3.32 5 4 C7.31 4 9.62 4 12 4 C12 4.33 12 4.66 12 5 C8.04 5 4.08 5 0 5 C0 3.35 0 1.7 0 0 Z " fill="#CA7410" transform="translate(363,456)"/>
<path d="M0 0 C3.47493817 5.79156362 3.11459949 12.46782935 3 19 C2.67 19 2.34 19 2 19 C1.80083984 17.75283203 1.80083984 17.75283203 1.59765625 16.48046875 C1.42105469 15.39378906 1.24445313 14.30710938 1.0625 13.1875 C0.88847656 12.10855469 0.71445312 11.02960938 0.53515625 9.91796875 C0.06128079 6.95066644 0.06128079 6.95066644 -1 4 C-0.5625 1.8125 -0.5625 1.8125 0 0 Z " fill="#8E5E17" transform="translate(459,121)"/>
<path d="M0 0 C0.75 1.75 0.75 1.75 1 4 C-0.8125 6.0625 -0.8125 6.0625 -3 8 C-3.66 8.99 -4.32 9.98 -5 11 C-5 9.02 -5 7.04 -5 5 C-4.01 5 -3.02 5 -2 5 C-1.7834375 4.0409375 -1.7834375 4.0409375 -1.5625 3.0625 C-1 1 -1 1 0 0 Z " fill="#F7D47C" transform="translate(133,141)"/>
<path d="M0 0 C0 4.31618166 -2.13270348 5.92789659 -5 9 C-5.66 9 -6.32 9 -7 9 C-5.64978174 4.58110387 -3.73884332 2.65654657 0 0 Z " fill="#E3A120" transform="translate(120,118)"/>
<path d="M0 0 C1.32 0.33 2.64 0.66 4 1 C3.67 4.3 3.34 7.6 3 11 C2.67 11 2.34 11 2 11 C1.93941406 10.37351563 1.87882812 9.74703125 1.81640625 9.1015625 C1.73261719 8.28429687 1.64882812 7.46703125 1.5625 6.625 C1.48128906 5.81289062 1.40007812 5.00078125 1.31640625 4.1640625 C1.10909886 1.95727195 1.10909886 1.95727195 0 0 Z " fill="#F7B532" transform="translate(101,166)"/>
<path d="M0 0 C0 3 0 3 -1.3125 4.38671875 C-2.875 5.59114583 -4.4375 6.79557292 -6 8 C-5.65120368 4.74456771 -4.97866739 3.98126893 -2.4375 1.75 C-1.633125 1.1725 -0.82875 0.595 0 0 Z " fill="#36291A" transform="translate(239,266)"/>
<path d="M0 0 C0.99 0.33 1.98 0.66 3 1 C4.1875 4.0625 4.1875 4.0625 5 7 C3.0625 6.6875 3.0625 6.6875 1 6 C0 3 0 3 0 0 Z " fill="#D68C1E" transform="translate(447,94)"/>
<path d="M0 0 C0.66 0.66 1.32 1.32 2 2 C1.625 5.625 1.625 5.625 1 9 C-1.14809171 5.77786243 -1.29386153 4.72224599 -1 1 C-0.67 0.67 -0.34 0.34 0 0 Z " fill="#D27412" transform="translate(457,389)"/>
</svg>
